<svg width="32" height="32" viewBox="0 0 32 32" fill="none" xmlns="http://www.w3.org/2000/svg">
<g clip-path="url(#clip0_87_1670)">
<path d="M16 0C12.8355 0 9.74207 0.938384 7.11088 2.69649C4.4797 4.45459 2.42894 6.95345 1.21793 9.87707C0.00693258 12.8007 -0.309921 16.0178 0.307443 19.1214C0.924806 22.2251 2.44866 25.0761 4.6863 27.3137C6.92394 29.5514 9.77487 31.0752 12.8786 31.6926C15.9823 32.3099 19.1993 31.9931 22.1229 30.7821C25.0466 29.5711 27.5454 27.5203 29.3035 24.8891C31.0616 22.2579 32 19.1645 32 16C31.9954 11.7579 30.3082 7.69095 27.3087 4.69136C24.3091 1.69177 20.2421 0.00458811 16 0V0ZM16.6667 27.9667V26.2533C16.6667 24.7717 16.0781 23.3507 15.0304 22.303C13.9827 21.2553 12.5617 20.6667 11.08 20.6667H11.0667C10.5162 20.6667 9.97108 20.5583 9.4625 20.3475C8.95393 20.1368 8.49186 19.828 8.10267 19.4387L4.03201 15.3653C4.14074 13.2471 4.80989 11.1958 5.97106 9.42087C7.13223 7.64596 8.7438 6.21115 10.6411 5.26305C12.5384 4.31494 14.6534 3.88754 16.7699 4.02452C18.8865 4.16149 20.9287 4.85793 22.688 6.04267C22.3349 6.30177 21.9086 6.44186 21.4707 6.44267H19.5587C19.2861 6.44267 19.0161 6.49643 18.7643 6.60087C18.5125 6.70532 18.2838 6.8584 18.0912 7.05135C17.8986 7.2443 17.746 7.47333 17.642 7.72534C17.5381 7.97735 17.4848 8.24739 17.4853 8.52V9.90933C17.4853 10.4592 17.2669 10.9866 16.8781 11.3754C16.4893 11.7642 15.9619 11.9827 15.412 11.9827V11.9827C15.1393 11.982 14.8691 12.0351 14.6169 12.139C14.3648 12.2428 14.1356 12.3954 13.9425 12.588C13.7494 12.7806 13.5962 13.0094 13.4917 13.2613C13.3871 13.5132 13.3333 13.7833 13.3333 14.056V15.4453C13.3333 15.9952 13.5518 16.5226 13.9406 16.9114C14.3294 17.3002 14.8568 17.5187 15.4067 17.5187H20.948C21.4979 17.5187 22.0253 17.7371 22.4141 18.1259C22.8029 18.5148 23.0213 19.0421 23.0213 19.592V21.6187C23.0214 21.8911 23.0751 22.1608 23.1794 22.4125C23.2837 22.6642 23.4366 22.8928 23.6293 23.0853L24.74 24.196C22.6355 26.4465 19.7432 27.7974 16.6667 27.9667Z" fill="#A7732A"/>
</g>
<defs>
<clipPath id="clip0_87_1670">
<rect width="32" height="32" fill="white"/>
</clipPath>
</defs>
</svg>
