<svg width="800" height="800" viewBox="0 0 800 800" fill="none" xmlns="http://www.w3.org/2000/svg">
<rect width="800" height="800" fill="#0D1410"/>
<mask id="mask0_1_10" style="mask-type:alpha" maskUnits="userSpaceOnUse" x="0" y="0" width="800" height="525">
<path d="M800 525L0 305V0H800V525Z" fill="#D9D9D9"/>
</mask>
<g mask="url(#mask0_1_10)">
<rect width="800" height="800" fill="#0D1410"/>
<path d="M317.5 430.5L306.5 421.5C302.5 418.167 299.667 416.333 298 416C296.333 415.333 293 415 288 415H171V540H301.5C307.5 540 311.333 539.833 313 539.5C314.667 538.833 317 537.333 320 535C323 532.667 324.667 530.833 325 529.5C325.667 527.833 326 524.5 326 519.5V448.5C326 443.167 325.667 439.667 325 438C324.333 436.333 321.833 433.833 317.5 430.5ZM171 260V380H279.5C285.5 380 289.333 379.833 291 379.5C293 378.833 295.667 377.167 299 374.5L312 364C316 360.667 318.333 358.167 319 356.5C319.667 354.833 320 351.167 320 345.5V280.5C320 275.5 319.667 272.333 319 271C318.667 269.333 317 267.333 314 265C311 262.667 308.667 261.333 307 261C305.333 260.333 301.5 260 295.5 260H171ZM323 392V394.5C327 394.5 331.667 396.667 337 401L361 420.5C364 423.167 365.833 425.667 366.5 428C367.5 430 368 434 368 440V530C368 540 364 548.333 356 555C353.333 557 349.333 560.333 344 565C336 571.667 328 575 320 575H129V225H314C322 225 330 228.333 338 235L350 245C358 251.667 362 260 362 270V355.5C362 362.5 359.333 368.167 354 372.5L337 385.5C331.667 389.833 327 392 323 392Z" fill="#EAE3C9"/>
<path d="M378 575V225H563C571.667 225 579.667 228.333 587 235L635 275C643 281.667 647 288.333 647 295V505C647 511.667 643 518.333 635 525L587 565C579.667 571.667 571.667 575 563 575H378ZM605 490V310C605 303.333 601 296.667 593 290L569 270C561.667 263.333 553.667 260 545 260H420V540H545C553.667 540 561.667 536.667 569 530L593 510C601 503.333 605 496.667 605 490Z" fill="#EAE3C9"/>
</g>
<mask id="mask1_1_10" style="mask-type:alpha" maskUnits="userSpaceOnUse" x="0" y="0" width="800" height="800">
<rect width="800" height="800" fill="#0D1410"/>
</mask>
<g mask="url(#mask1_1_10)">
<mask id="mask2_1_10" style="mask-type:alpha" maskUnits="userSpaceOnUse" x="34" y="309" width="783" height="491">
<path d="M34 309L817 525V800H34V309Z" fill="#D9D9D9"/>
</mask>
<g mask="url(#mask2_1_10)">
<rect x="34" width="800" height="800" fill="#0D1410"/>
<path d="M351.5 430.5L340.5 421.5C336.5 418.167 333.667 416.333 332 416C330.333 415.333 327 415 322 415H205V540H335.5C341.5 540 345.333 539.833 347 539.5C348.667 538.833 351 537.333 354 535C357 532.667 358.667 530.833 359 529.5C359.667 527.833 360 524.5 360 519.5V448.5C360 443.167 359.667 439.667 359 438C358.333 436.333 355.833 433.833 351.5 430.5ZM205 260V380H313.5C319.5 380 323.333 379.833 325 379.5C327 378.833 329.667 377.167 333 374.5L346 364C350 360.667 352.333 358.167 353 356.5C353.667 354.833 354 351.167 354 345.5V280.5C354 275.5 353.667 272.333 353 271C352.667 269.333 351 267.333 348 265C345 262.667 342.667 261.333 341 261C339.333 260.333 335.5 260 329.5 260H205ZM357 392V394.5C361 394.5 365.667 396.667 371 401L395 420.5C398 423.167 399.833 425.667 400.5 428C401.5 430 402 434 402 440V530C402 540 398 548.333 390 555C387.333 557 383.333 560.333 378 565C370 571.667 362 575 354 575H163V225H348C356 225 364 228.333 372 235L384 245C392 251.667 396 260 396 270V355.5C396 362.5 393.333 368.167 388 372.5L371 385.5C365.667 389.833 361 392 357 392Z" fill="#D3B58D"/>
<path d="M412 575V225H597C605.667 225 613.667 228.333 621 235L669 275C677 281.667 681 288.333 681 295V505C681 511.667 677 518.333 669 525L621 565C613.667 571.667 605.667 575 597 575H412ZM639 490V310C639 303.333 635 296.667 627 290L603 270C595.667 263.333 587.667 260 579 260H454V540H579C587.667 540 595.667 536.667 603 530L627 510C635 503.333 639 496.667 639 490Z" fill="#D3B58D"/>
</g>
</g>
</svg>
